<svg width="32" height="32" viewBox="0 0 32 32" fill="none" xmlns="http://www.w3.org/2000/svg">
  <!-- Background circle -->
  <circle cx="16" cy="16" r="15" fill="#2D1B69" stroke="none"/>
  
  <!-- Chart icon inside the circle -->
  <g transform="translate(8, 12)">
    <!-- Chart bars -->
    <rect x="2" y="10" width="2" height="6" fill="#00D084" rx="1"/>
    <rect x="6" y="8" width="2" height="8" fill="#00D084" rx="1"/>
    <rect x="10" y="6" width="2" height="10" fill="#00D084" rx="1"/>
    <rect x="14" y="7" width="2" height="9" fill="#00D084" rx="1"/>
    
    <!-- Trend line -->
    <path d="M 3 13 L 7 11 L 11 9 L 15 10" stroke="#FFFFFF" stroke-width="1" fill="none" stroke-linecap="round"/>
    
    <!-- Data points -->
    <circle cx="3" cy="13" r="1" fill="#FFFFFF"/>
    <circle cx="7" cy="11" r="1" fill="#FFFFFF"/>
    <circle cx="11" cy="9" r="1" fill="#FFFFFF"/>
    <circle cx="15" cy="10" r="1" fill="#FFFFFF"/>
    
    <!-- Star accent -->
    <path d="M 14 3 L 14.5 4.5 L 16 4 L 15 5.5 L 16.5 6 L 14.5 6 L 14 7.5 L 13.5 6 L 12 6 L 13.5 5.5 L 12.5 4 L 14 4.5 Z" fill="#FFFFFF" opacity="0.8"/>
  </g>
</svg>