<?xml version="1.0" standalone="no"?>
<!DOCTYPE svg PUBLIC "-//W3C//DTD SVG 20010904//EN"
 "http://www.w3.org/TR/2001/REC-SVG-20010904/DTD/svg10.dtd">
<svg version="1.0" xmlns="http://www.w3.org/2000/svg"
 width="1080.000000pt" height="476.000000pt" viewBox="0 0 1080.000000 476.000000"
 preserveAspectRatio="xMidYMid meet">

<g transform="translate(0.000000,476.000000) scale(0.100000,-0.100000)"
fill="#000000" stroke="none">
<path d="M3955 4744 c-672 -39 -1232 -276 -1641 -696 -120 -123 -173 -189
-256 -318 -55 -84 -128 -212 -128 -224 0 -3 247 -6 549 -6 l549 0 54 46 c187
162 417 265 713 321 70 13 147 17 340 17 261 1 340 -8 528 -55 157 -40 442
-153 549 -219 26 -17 52 -30 57 -30 5 0 19 26 31 58 21 58 134 336 217 537 62
149 72 180 65 191 -20 29 -255 145 -414 205 -218 82 -421 129 -673 154 -148
14 -439 25 -540 19z"/>
<path d="M8295 4738 c-844 -51 -1539 -518 -1883 -1265 -212 -462 -275 -1041
-176 -1623 49 -285 181 -628 330 -858 64 -99 155 -213 165 -210 7 3 178 200
417 483 42 50 101 116 131 148 l55 58 -59 117 c-33 64 -67 128 -76 142 -39 60
-91 267 -108 435 -16 156 -19 251 -10 372 28 383 156 695 384 940 276 297 667
441 1126 412 360 -22 656 -148 889 -379 191 -188 319 -438 387 -750 45 -208
43 -555 -3 -790 -33 -168 -116 -370 -207 -505 -100 -148 -247 -298 -327 -332
-19 -8 -42 -21 -50 -28 -34 -29 -211 -115 -290 -141 -47 -15 -104 -35 -126
-45 -63 -28 -132 -34 -339 -32 -319 4 -418 15 -446 49 -6 8 -20 14 -30 14 -39
0 -208 74 -327 143 -68 40 -159 102 -202 139 -43 38 -82 68 -87 67 -14 -1
-563 -653 -563 -668 0 -13 106 -109 193 -174 305 -229 724 -387 1136 -427 155
-15 497 -12 641 5 333 41 602 127 860 278 162 95 267 175 408 312 337 325 552
754 642 1280 40 232 42 691 5 940 -61 403 -227 790 -474 1103 -86 109 -251
268 -374 360 -295 221 -648 363 -1032 413 -122 16 -445 25 -580 17z m1455
-743 c8 -58 16 -85 25 -85 8 0 16 3 19 8 9 15 96 73 96 64 0 -5 -18 -32 -41
-61 -22 -28 -38 -55 -35 -60 4 -5 40 -12 81 -16 42 -4 77 -11 80 -15 3 -5 -19
-11 -47 -14 -100 -13 -128 -18 -128 -24 1 -4 21 -32 45 -62 24 -30 42 -56 40
-58 -2 -2 -31 17 -64 42 l-60 46 -6 -57 c-3 -32 -8 -74 -12 -93 -5 -31 -6 -33
-14 -13 -4 12 -11 49 -15 83 -4 33 -11 63 -16 66 -5 3 -34 -13 -64 -36 -31
-23 -58 -39 -62 -36 -3 4 13 26 36 49 41 42 50 61 33 71 -4 3 -41 10 -82 17
-41 6 -78 14 -82 19 -5 4 29 11 75 14 46 4 89 11 96 14 7 5 -7 28 -40 65 -28
32 -48 60 -45 63 3 3 30 -13 61 -35 30 -23 60 -41 65 -41 12 0 17 18 26 85 6
52 14 85 20 85 1 0 8 -38 15 -85z"/>
<path d="M435 3074 c-86 -20 -116 -30 -157 -51 -172 -85 -248 -286 -181 -476
12 -35 35 -70 73 -108 65 -66 121 -90 325 -144 194 -51 234 -71 274 -135 27
-45 27 -79 -2 -121 -82 -124 -353 -104 -566 40 l-60 41 -14 -22 c-8 -13 -36
-59 -62 -103 l-47 -79 33 -28 c41 -34 166 -100 233 -123 252 -84 532 -46 670
92 27 26 60 73 75 103 23 49 26 67 26 160 0 95 -3 110 -28 160 -65 126 -143
172 -428 251 -206 57 -265 99 -256 187 8 78 91 132 202 132 65 0 202 -39 293
-83 45 -22 85 -37 88 -34 14 13 102 203 97 210 -10 16 -165 88 -235 108 -53
15 -109 22 -203 24 -71 2 -139 2 -150 -1z"/>
<path d="M2124 3066 c-206 -47 -324 -188 -324 -386 0 -108 27 -178 94 -245 74
-73 98 -83 411 -166 139 -37 194 -79 202 -153 8 -64 -11 -102 -66 -134 -42
-25 -55 -27 -146 -27 -67 1 -120 7 -160 19 -71 21 -183 76 -231 112 -18 15
-39 24 -46 21 -7 -3 -35 -49 -63 -102 l-49 -98 31 -26 c70 -58 236 -126 371
-152 77 -14 268 -6 333 14 124 40 232 125 269 212 32 75 44 164 30 230 -18 85
-36 122 -91 180 -62 66 -135 100 -339 159 -85 24 -167 49 -181 54 -44 17 -88
62 -100 102 -23 76 44 150 151 166 85 13 259 -30 368 -91 24 -14 49 -25 53
-25 13 0 100 190 97 209 -4 22 -137 86 -233 112 -102 27 -293 35 -381 15z"/>
<path d="M1280 3052 c-12 -4 -15 -1288 -2 -1296 4 -2 64 -6 132 -7 l125 -2 0
654 0 654 -122 0 c-67 0 -127 -1 -133 -3z"/>
<path d="M3434 3051 c-7 -8 -4 -1300 4 -1304 4 -3 62 -2 130 1 l122 5 -2 650
-3 650 -123 1 c-68 1 -125 -1 -128 -3z"/>
<path d="M4381 3018 c-31 -70 -229 -534 -278 -653 -25 -60 -51 -123 -59 -140
-29 -64 -194 -468 -194 -476 0 -5 60 -9 134 -9 l133 0 36 88 c20 48 42 102 48
120 l11 32 302 0 301 0 23 -66 c13 -36 34 -90 47 -120 l24 -54 139 0 c76 0
141 2 144 5 3 4 -7 36 -22 73 -15 37 -65 157 -110 267 -45 110 -117 283 -160
385 -42 102 -103 248 -135 325 -32 77 -71 168 -86 203 l-28 62 -125 0 -126 0
-19 -42z m167 -336 c6 -15 34 -88 62 -162 28 -74 65 -172 82 -218 17 -45 28
-86 24 -90 -8 -8 -384 -4 -397 4 -5 3 0 26 10 52 34 86 159 407 170 436 9 22
14 26 25 17 8 -7 19 -24 24 -39z"/>
<path d="M5075 2461 c-5 -9 34 -116 80 -216 12 -27 51 -117 85 -200 35 -82 74
-175 86 -205 13 -30 24 -68 24 -84 0 -40 -35 -97 -77 -126 -36 -24 -41 -25
-220 -25 l-183 0 0 -301 c0 -225 -3 -304 -12 -316 -13 -17 -97 -44 -223 -74
-186 -43 -522 -57 -725 -30 -365 49 -622 164 -864 385 l-61 56 -552 -3 -552
-2 33 -73 c196 -431 629 -836 1101 -1027 349 -142 642 -199 1045 -205 427 -6
674 29 1015 141 77 26 180 64 230 86 85 36 320 162 357 190 16 12 18 45 20
353 1 187 2 643 0 1013 l-2 672 -299 0 c-175 0 -302 -4 -306 -9z"/>
</g>
</svg>
