<svg width="200" height="60" viewBox="0 0 200 60" fill="none" xmlns="http://www.w3.org/2000/svg">
  <!-- Fundo circular para o 'G' -->
  <circle cx="170" cy="30" r="28" fill="#1e3a8a" opacity="0.1"/>
  
  <!-- Letra 'S' -->
  <path d="M 8 45 C 8 48 10 50 14 50 C 18 50 20 48 20 45 C 20 42 18 40 14 40 L 12 40 C 8 40 6 38 6 35 C 6 32 8 30 12 30 C 16 30 18 32 18 35 M 8 20 C 8 17 10 15 14 15 C 18 15 20 17 20 20" stroke="#1e3a8a" stroke-width="3" fill="none" stroke-linecap="round"/>
  
  <!-- Letra 'I' -->
  <line x1="28" y1="15" x2="28" y2="45" stroke="#1e3a8a" stroke-width="3" stroke-linecap="round"/>
  
  <!-- Letra 'S' -->
  <path d="M 36 45 C 36 48 38 50 42 50 C 46 50 48 48 48 45 C 48 42 46 40 42 40 L 40 40 C 36 40 34 38 34 35 C 34 32 36 30 40 30 C 44 30 46 32 46 35 M 36 20 C 36 17 38 15 42 15 C 46 15 48 17 48 20" stroke="#1e3a8a" stroke-width="3" fill="none" stroke-linecap="round"/>
  
  <!-- Letra 'I' -->
  <line x1="56" y1="15" x2="56" y2="45" stroke="#1e3a8a" stroke-width="3" stroke-linecap="round"/>
  
  <!-- Letra 'A' -->
  <path d="M 64 45 L 70 15 L 76 45 M 67 35 L 73 35" stroke="#1e3a8a" stroke-width="3" fill="none" stroke-linecap="round" stroke-linejoin="round"/>
  
  <!-- Letra 'G' com círculo e gráfico -->
  <g transform="translate(142, 2)">
    <!-- Círculo principal do G -->
    <circle cx="28" cy="28" r="26" fill="#1e3a8a" stroke="#1e3a8a" stroke-width="2"/>
    
    <!-- Fundo branco interno -->
    <circle cx="28" cy="28" r="22" fill="white"/>
    
    <!-- Gráfico de barras dentro do círculo -->
    <g transform="translate(16, 16)">
      <!-- Barras crescentes -->
      <rect x="4" y="18" width="3" height="6" fill="#10b981" rx="1"/>
      <rect x="8" y="15" width="3" height="9" fill="#10b981" rx="1"/>
      <rect x="12" y="12" width="3" height="12" fill="#10b981" rx="1"/>
      <rect x="16" y="8" width="3" height="16" fill="#10b981" rx="1"/>
      <rect x="20" y="6" width="3" height="18" fill="#10b981" rx="1"/>
      
      <!-- Linha de tendência -->
      <path d="M 5.5 21 Q 9.5 18 13.5 15 Q 17.5 11 21.5 9" stroke="#10b981" stroke-width="2" fill="none" stroke-linecap="round"/>
      
      <!-- Pontos na linha -->
      <circle cx="5.5" cy="21" r="1.5" fill="#10b981"/>
      <circle cx="9.5" cy="18" r="1.5" fill="#10b981"/>
      <circle cx="13.5" cy="15" r="1.5" fill="#10b981"/>
      <circle cx="17.5" cy="11" r="1.5" fill="#10b981"/>
      <circle cx="21.5" cy="9" r="1.5" fill="#10b981"/>
    </g>
    
    <!-- Estrela de destaque -->
    <path d="M 45 8 L 46.5 11 L 50 11 L 47.25 13.5 L 48.25 17 L 45 15 L 41.75 17 L 42.75 13.5 L 40 11 L 43.5 11 Z" fill="white" stroke="#10b981" stroke-width="0.5"/>
    
    <!-- Abertura do G -->
    <path d="M 45 28 L 54 28 L 54 40 L 45 40" stroke="white" stroke-width="4" fill="none" stroke-linecap="round"/>
    <path d="M 45 28 L 54 28 L 54 40 L 45 40" stroke="#1e3a8a" stroke-width="2" fill="none" stroke-linecap="round"/>
  </g>
  
  <!-- Letra 'O' -->
  <circle cx="185" cy="30" r="12" fill="none" stroke="#1e3a8a" stroke-width="3"/>
</svg>